<svg xmlns="http://www.w3.org/2000/svg" width="16" height="16" shape-rendering="crispEdges">
  <path fill="#FFF"
    d="M6 0h1v1H6zM7 0h1v1H7zM8 0h1v1H8zM9 0h1v1H9zM4 1h1v1H4zM5 1h1v1H5zM6 1h1v1H6zM7 1h1v1H7zM8 1h1v1H8zM13 1h1v1h-1zM14 1h1v1h-1zM3 2h1v1H3zM4 2h1v1H4zM6 2h1v1H6zM7 2h1v1H7zM8 2h1v1H8zM13 2h1v1h-1zM14 2h1v1h-1zM3 3h1v1H3zM6 3h1v1H6zM7 3h1v1H7zM8 3h1v1H8zM11 3h1v1h-1zM2 4h1v1H2zM3 4h1v1H3zM4 4h1v1H4zM5 4h1v1H5zM6 4h1v1H6zM8 4h1v1H8zM9 4h1v1H9zM13 4h1v1h-1zM2 5h1v1H2zM3 5h1v1H3zM4 5h1v1H4zM5 5h1v1H5zM8 5h1v1H8zM9 5h1v1H9zM10 5h1v1h-1zM2 6h1v1H2zM3 6h1v1H3zM5 6h1v1H5zM6 6h1v1H6zM7 6h1v1H7zM8 6h1v1H8zM9 6h1v1H9zM10 6h1v1h-1zM11 6h1v1h-1zM12 6h1v1h-1zM3 7h1v1H3zM6 7h1v1H6zM7 7h1v1H7zM8 7h1v1H8zM9 7h1v1H9zM11 7h1v1h-1zM12 7h1v1h-1zM3 8h1v1H3zM4 8h1v1H4zM5 8h1v1H5zM6 8h1v1H6zM8 8h1v1H8zM11 8h1v1h-1zM12 8h1v1h-1zM4 9h1v1H4zM5 9h1v1H5zM8 9h1v1H8zM9 9h1v1H9zM10 9h1v1h-1zM11 9h1v1h-1zM6 10h1v1H6zM7 10h1v1H7zM8 10h1v1H8zM9 10h1v1H9zM0 12h1v1H0zM2 12h1v1H2zM4 12h1v1H4zM5 12h1v1H5zM6 12h1v1H6zM8 12h1v1H8zM9 12h1v1H9zM10 12h1v1h-1zM12 12h1v1h-1zM13 12h1v1h-1zM0 13h1v1H0zM2 13h1v1H2zM5 13h1v1H5zM9 13h1v1H9zM12 13h1v1h-1zM14 13h1v1h-1zM0 14h1v1H0zM1 14h1v1H1zM2 14h1v1H2zM5 14h1v1H5zM9 14h1v1H9zM12 14h1v1h-1zM13 14h1v1h-1zM0 15h1v1H0zM2 15h1v1H2zM5 15h1v1H5zM9 15h1v1H9zM12 15h1v1h-1z" />
</svg>